<svg width="32" height="32" viewBox="0 0 32 32" fill="none" xmlns="http://www.w3.org/2000/svg">
<path fill-rule="evenodd" clip-rule="evenodd" d="M18.2975 2.02721C19.3499 1.50102 20.5806 1.46485 21.6621 1.92834L28.2424 4.74848C29.7131 5.37879 30.6667 6.82494 30.6667 8.42506V25.2892C30.6667 28.1609 27.7305 30.097 25.091 28.9658L20.6116 27.0461C20.2511 26.8916 19.8409 26.9036 19.4901 27.079L13.7026 29.9728C12.6502 30.499 11.4195 30.5351 10.338 30.0717L3.7577 27.2515C2.28696 26.6212 1.33337 25.1751 1.33337 23.5749V6.71077C1.33337 3.83911 4.26958 1.90299 6.90905 3.03419L11.3885 4.95394C11.749 5.10844 12.1592 5.09638 12.51 4.92099L18.2975 2.02721ZM21.3334 4.68872V24.4709C21.4442 24.5073 21.5539 24.5486 21.6621 24.595L26.1415 26.5148C27.0213 26.8918 28 26.2464 28 25.2892V8.42506C28 7.89169 27.6822 7.40964 27.1919 7.19953L21.3334 4.68872ZM18.6667 24.532V4.82405L13.7026 7.30612C13.5817 7.36656 13.4585 7.42053 13.3334 7.46803V27.176L18.2975 24.6939C18.4184 24.6334 18.5416 24.5795 18.6667 24.532ZM10.338 7.405C10.4462 7.45136 10.5559 7.49272 10.6667 7.5291V27.3113L4.80815 24.8005C4.3179 24.5904 4.00004 24.1083 4.00004 23.5749V6.71077C4.00004 5.75355 4.97878 5.10818 5.8586 5.48525L10.338 7.405Z" fill="#0F0F0F"/>
</svg>
