<svg width="32" height="32" viewBox="0 0 32 32" fill="none" xmlns="http://www.w3.org/2000/svg">
<path fill-rule="evenodd" clip-rule="evenodd" d="M9.28107 20.8324C7.63815 18.7786 6.65574 16.1734 6.65574 13.3388C6.65574 6.70835 12.0308 1.33331 18.6612 1.33331C25.2917 1.33331 30.6667 6.70835 30.6667 13.3388C30.6667 19.9692 25.2917 25.3443 18.6612 25.3443C15.8266 25.3443 13.2214 24.3619 11.1675 22.7189L3.61053 30.2759C3.0896 30.7969 2.24499 30.7969 1.72405 30.2759C1.20312 29.755 1.20312 28.9104 1.72405 28.3895L9.28107 20.8324ZM18.6612 22.6898C23.8256 22.6898 28.0122 18.5032 28.0122 13.3388C28.0122 8.17438 23.8256 3.98781 18.6612 3.98781C13.4968 3.98781 9.31024 8.17438 9.31024 13.3388C9.31024 18.5032 13.4968 22.6898 18.6612 22.6898Z" fill="#0F0F0F"/>
</svg>
